<?xml version="1.0" standalone="no"?>
<!DOCTYPE svg PUBLIC "-//W3C//DTD SVG 20010904//EN"
 "http://www.w3.org/TR/2001/REC-SVG-20010904/DTD/svg10.dtd">
<svg version="1.0" xmlns="http://www.w3.org/2000/svg"
 width="122.000000pt" height="87.000000pt" viewBox="0 0 122.000000 87.000000"
 preserveAspectRatio="xMidYMid meet">
<metadata>
Created by potrace 1.10, written by Peter Selinger 2001-2011
</metadata>
<g transform="translate(0.000000,87.000000) scale(0.050000,-0.050000)"
fill="#000000" stroke="none">
<path d="M78 1622 l-58 -59 0 -592 c0 -700 8 -730 205 -778 50 -12 55 -22 55
-103 l0 -90 249 0 249 0 6 85 6 85 410 0 410 0 -2 -85 -1 -85 246 0 247 0 0
87 c0 84 3 87 79 110 115 35 141 84 141 266 l0 154 -65 7 c-42 4 -65 17 -65
36 0 19 23 32 65 36 98 10 93 84 -5 84 -49 0 -70 9 -70 30 0 21 21 30 70 30
61 0 70 6 70 50 0 44 -9 50 -70 50 -49 0 -70 9 -70 30 0 21 21 30 70 30 61 0
70 6 70 50 0 44 -9 50 -70 50 -46 0 -70 9 -70 28 0 30 42 52 102 52 34 0 38
16 38 171 0 335 22 329 -1222 329 l-961 0 -59 -58z m1991 -66 c67 -97 38
-1208 -30 -1165 -11 7 -18 1 -14 -13 3 -14 -11 -29 -30 -33 -23 -5 -35 4 -35
29 -1 25 -5 29 -17 11 -22 -36 -375 -45 -368 -10 3 14 -9 25 -26 25 -17 0 -26
-9 -19 -20 16 -25 35 -24 -449 -24 -302 0 -412 7 -418 24 -5 16 -12 17 -20 4
-14 -22 -106 -29 -339 -26 -105 1 -142 8 -132 25 9 15 5 18 -11 8 -52 -32 -60
51 -61 587 0 483 4 553 33 585 31 35 88 37 969 37 l936 0 31 -44z m-1469
-1436 c0 -11 -40 -20 -90 -20 -49 0 -90 9 -90 20 0 11 41 20 90 20 50 0 90 -9
90 -20z m1320 0 c0 -11 -45 -20 -100 -20 -55 0 -100 9 -100 20 0 11 45 20 100
20 55 0 100 -9 100 -20z"/>
<path d="M244 1476 c-40 -40 -33 -944 7 -985 52 -51 1069 -46 1116 6 48 53 50
923 2 972 -41 41 -1085 47 -1125 7z m156 -106 c0 -40 -10 -50 -50 -50 -48 0
-71 53 -37 87 34 34 87 11 87 -37z m740 0 l0 -50 -320 0 -320 0 0 50 0 50 320
0 320 0 0 -50z m180 0 c0 -37 -11 -50 -40 -50 -29 0 -40 13 -40 50 0 37 11 50
40 50 29 0 40 -13 40 -50z m-920 -170 c0 -29 -13 -40 -50 -40 -37 0 -50 11
-50 40 0 29 13 40 50 40 37 0 50 -11 50 -40z m740 0 c0 -38 -13 -40 -320 -40
-307 0 -320 2 -320 40 0 38 13 40 320 40 307 0 320 -2 320 -40z m180 0 c0 -27
-13 -40 -40 -40 -27 0 -40 13 -40 40 0 27 13 40 40 40 27 0 40 -13 40 -40z
m-920 -150 c0 -19 -19 -30 -50 -30 -31 0 -50 11 -50 30 0 19 19 30 50 30 31 0
50 -11 50 -30z m740 0 c0 -25 -49 -30 -320 -30 -271 0 -320 5 -320 30 0 25 49
30 320 30 271 0 320 -5 320 -30z m180 0 c0 -17 -18 -30 -40 -30 -22 0 -40 13
-40 30 0 17 18 30 40 30 22 0 40 -13 40 -30z m-920 -162 c0 -17 -21 -28 -50
-28 -46 0 -67 36 -39 64 20 21 89 -8 89 -36z m740 12 c0 -38 -13 -40 -320 -40
-307 0 -320 2 -320 40 0 38 13 40 320 40 307 0 320 -2 320 -40z m176 -7 c5
-22 -7 -33 -35 -33 -22 0 -41 12 -41 27 0 61 65 67 76 6z m-916 -143 c0 -19
-19 -30 -50 -30 -31 0 -50 11 -50 30 0 19 19 30 50 30 31 0 50 -11 50 -30z
m740 0 c0 -25 -49 -30 -320 -30 -271 0 -320 5 -320 30 0 25 49 30 320 30 271
0 320 -5 320 -30z m180 0 c0 -17 -18 -30 -40 -30 -22 0 -40 13 -40 30 0 17 18
30 40 30 22 0 40 -13 40 -30z m-920 -161 c0 -69 -87 -63 -96 6 -6 37 3 45 45
45 41 0 51 -10 51 -51z m740 1 l0 -50 -320 0 -320 0 0 50 0 50 320 0 320 0 0
-50z m180 0 c0 -37 -11 -50 -40 -50 -29 0 -40 13 -40 50 0 37 11 50 40 50 29
0 40 -13 40 -50z"/>
<path d="M1940 1420 l0 -80 -159 0 c-87 0 -164 9 -171 20 -7 11 -25 20 -41 20
-45 0 -43 -843 2 -889 45 -45 373 -45 418 0 40 41 47 945 7 985 -41 41 -56 27
-56 -56z m-4 -175 c-5 -49 -14 -55 -76 -53 -38 2 -113 4 -165 5 -78 3 -95 10
-95 40 0 57 17 63 185 63 l158 0 -7 -55z m4 -156 c0 -75 -326 -69 -336 6 -7
44 -2 45 165 45 170 0 171 0 171 -51z m0 -139 c0 -49 -3 -50 -160 -50 -157 0
-160 1 -160 50 0 49 3 50 160 50 157 0 160 -1 160 -50z m0 -140 c0 -49 -3 -50
-160 -50 -157 0 -160 1 -160 50 0 49 3 50 160 50 157 0 160 -1 160 -50z m0
-220 c0 -49 -3 -50 -160 -50 -157 0 -160 1 -160 50 0 49 3 50 160 50 157 0
160 -1 160 -50z"/>
</g>
</svg>
