<?xml version="1.0" standalone="no"?>
<!DOCTYPE svg PUBLIC "-//W3C//DTD SVG 20010904//EN"
 "http://www.w3.org/TR/2001/REC-SVG-20010904/DTD/svg10.dtd">
<svg version="1.0" xmlns="http://www.w3.org/2000/svg"
 width="110.000000pt" height="98.000000pt" viewBox="0 0 110.000000 98.000000"
 preserveAspectRatio="xMidYMid meet">
<metadata>
Created by potrace 1.10, written by Peter Selinger 2001-2011
</metadata>
<g transform="translate(0.000000,98.000000) scale(0.100000,-0.100000)"
fill="#000000" stroke="none">
<path d="M149 905 c-14 -7 -30 -25 -37 -39 -6 -14 -18 -26 -26 -26 -8 0 -22
-10 -30 -22 -14 -19 -16 -68 -16 -333 l0 -312 23 -21 c13 -12 28 -22 34 -22 5
0 15 -11 21 -25 25 -54 40 -56 436 -53 l364 3 26 24 c14 14 26 30 26 38 0 7 7
13 15 13 9 0 27 11 40 25 l25 24 0 304 c0 293 -1 305 -21 331 -11 14 -27 26
-34 26 -8 0 -21 13 -30 30 -8 16 -24 34 -34 40 -13 6 -154 10 -388 10 -295 -1
-373 -4 -394 -15z m201 -30 c0 -2 -17 -13 -38 -24 -48 -24 -126 -102 -142
-142 -7 -16 -15 -29 -19 -29 -10 0 3 168 14 179 6 6 44 12 85 14 41 1 81 4 88
5 6 1 12 0 12 -3z m568 -23 c11 -14 19 -172 8 -172 -2 0 -16 20 -29 43 -31 53
-97 114 -143 133 -19 8 -34 16 -34 18 0 2 42 1 93 -1 68 -4 95 -9 105 -21z
m-408 -2 c0 -14 -7 -20 -22 -20 -13 -1 -40 -7 -60 -14 -32 -11 -38 -11 -43 2
-7 19 -7 19 41 36 58 21 84 20 84 -4z m159 -6 c27 -11 31 -17 22 -28 -10 -11
-17 -11 -49 0 -20 7 -47 13 -59 14 -17 0 -23 6 -23 21 0 19 4 21 38 14 20 -4
52 -13 71 -21z m119 -70 c2 -1 -8 -13 -22 -27 -30 -30 -33 -45 -9 -54 11 -4
24 3 41 22 23 28 25 28 38 10 8 -10 14 -22 14 -26 0 -4 -40 -31 -90 -60 -60
-34 -90 -57 -90 -69 0 -31 26 -29 84 6 31 19 59 34 61 34 5 0 25 -70 25 -87 0
-8 -23 -13 -67 -15 -62 -3 -68 -5 -71 -25 -3 -22 0 -23 67 -23 39 0 71 -3 71
-6 0 -14 -23 -94 -27 -94 -3 0 -31 14 -63 31 -60 32 -80 32 -80 -1 0 -13 26
-32 90 -66 50 -26 90 -50 90 -53 0 -3 -8 -15 -16 -26 -15 -20 -16 -20 -35 8
-21 27 -59 37 -59 15 0 -7 11 -24 25 -38 l25 -26 -23 -22 -23 -22 -49 91 c-50
93 -67 111 -88 90 -8 -8 -4 -25 17 -67 30 -63 27 -72 -27 -81 l-37 -6 0 62 c0
47 -4 63 -16 68 -24 9 -34 -15 -34 -79 l0 -56 -37 10 c-21 5 -42 13 -46 18 -5
4 5 32 22 62 24 42 28 57 19 66 -23 23 -35 12 -84 -78 -27 -49 -54 -90 -60
-90 -6 0 -17 7 -24 15 -11 13 -9 20 9 38 24 26 28 57 8 57 -8 0 -24 -12 -38
-26 l-24 -25 -18 22 -18 23 78 42 c43 23 87 49 98 57 18 14 19 17 4 32 -15 16
-20 15 -70 -12 -30 -15 -57 -29 -61 -31 -8 -4 -23 29 -34 73 -6 25 -6 25 64
25 73 0 93 10 72 35 -9 10 -33 15 -76 15 -35 0 -64 3 -64 6 0 11 23 94 26 94
2 0 29 -16 60 -34 44 -27 62 -33 76 -25 35 19 21 33 -92 99 -41 23 -77 45 -79
46 -2 2 4 13 14 24 l18 20 27 -25 c14 -14 31 -25 38 -25 19 0 14 32 -9 57 -18
18 -20 25 -9 38 7 8 18 15 24 15 6 0 32 -40 57 -88 45 -85 73 -110 85 -78 4 9
-7 41 -22 71 -16 29 -26 56 -23 59 2 3 24 9 47 14 l42 10 0 -62 c0 -63 12 -89
36 -79 10 4 14 24 14 69 0 61 1 64 24 64 14 0 36 -4 49 -9 l25 -10 -31 -60
c-25 -46 -29 -63 -20 -72 21 -21 40 -2 89 90 47 88 49 90 69 73 11 -9 21 -17
23 -18z m222 -284 c0 -227 -3 -280 -15 -296 -8 -10 -15 -16 -15 -11 0 4 0 142
0 307 0 165 0 303 0 308 0 4 7 -2 15 -12 12 -16 15 -69 15 -296z m-900 257 c0
-23 7 -53 16 -65 14 -21 14 -28 -1 -87 -12 -48 -13 -70 -5 -84 12 -24 -8 -103
-25 -98 -10 4 -20 340 -11 364 11 28 26 11 26 -30z m98 -105 c10 -7 9 -16 -3
-45 -8 -20 -15 -48 -15 -62 0 -18 -5 -25 -20 -25 -25 0 -26 20 -3 89 17 53 20
56 41 43z m696 -39 c22 -65 21 -93 -4 -93 -16 0 -20 7 -20 33 0 17 -7 45 -15
61 -13 24 -13 31 -3 38 22 13 26 10 42 -39z m-707 -190 c5 -27 13 -55 17 -64
5 -11 1 -19 -9 -23 -18 -7 -38 32 -50 97 -6 32 -5 37 12 37 15 0 21 -11 30
-47z m723 28 c0 -24 -31 -121 -39 -121 -3 0 -12 4 -19 8 -10 7 -9 16 3 45 8
20 15 48 15 62 0 18 5 25 20 25 13 0 20 -7 20 -19z m-818 -158 c2 -54 3 -100
2 -102 -2 -1 -7 0 -13 4 -13 8 -15 195 -2 195 5 0 11 -44 13 -97z m125 -94
c26 -28 63 -59 83 -69 l35 -19 -76 -1 c-105 0 -113 7 -119 110 -3 45 -3 84 -1
86 3 2 10 -9 17 -26 7 -16 34 -53 61 -81z m685 -71 c-15 -16 -31 -18 -98 -16
l-79 3 41 22 c47 25 107 90 133 142 l16 34 3 -83 c2 -71 0 -86 -16 -102z
m-444 29 c31 -8 42 -15 42 -29 0 -14 -5 -18 -17 -15 -10 3 -39 10 -65 17 -27
7 -48 14 -48 15 0 20 15 35 29 29 9 -4 35 -11 59 -17z m220 5 c4 -13 -43 -36
-95 -45 -28 -6 -33 -4 -33 13 0 12 7 20 18 21 9 0 33 6 52 13 40 15 52 15 58
-2z"/>
<path d="M180 826 c0 -21 21 -31 30 -15 5 7 6 17 4 21 -9 14 -34 9 -34 -6z"/>
<path d="M864 829 c-3 -6 -2 -15 4 -21 13 -13 32 -2 32 18 0 16 -26 19 -36 3z"/>
<path d="M480 534 c-55 -51 -65 -84 -26 -84 13 0 30 7 37 17 12 14 15 11 19
-33 4 -41 8 -49 25 -49 17 0 20 8 23 48 3 47 14 61 26 32 8 -23 56 -20 56 4 0
16 -90 111 -105 111 -3 0 -28 -21 -55 -46z"/>
<path d="M180 156 c0 -8 4 -17 9 -20 11 -7 33 18 24 27 -12 12 -33 7 -33 -7z"/>
<path d="M864 159 c-8 -14 11 -33 25 -25 16 10 13 36 -3 36 -8 0 -18 -5 -22
-11z"/>
</g>
</svg>
