<?xml version="1.0" standalone="no"?>
<!DOCTYPE svg PUBLIC "-//W3C//DTD SVG 20010904//EN"
 "http://www.w3.org/TR/2001/REC-SVG-20010904/DTD/svg10.dtd">
<svg version="1.0" xmlns="http://www.w3.org/2000/svg"
 width="500.000000pt" height="500.000000pt" viewBox="0 0 500.000000 500.000000"
 preserveAspectRatio="xMidYMid meet">

<g transform="translate(0.000000,500.000000) scale(0.100000,-0.100000)"
fill="#000000" stroke="none">
<path d="M420 4598 c-66 -11 -126 -45 -172 -97 -85 -94 -78 67 -78 -1827 0
-1903 -7 -1742 81 -1839 26 -28 66 -60 88 -70 l41 -18 0 -107 c0 -91 3 -109
18 -123 16 -15 51 -17 279 -17 202 0 263 3 271 13 6 7 13 60 14 118 l3 104
1303 3 1302 2 0 -104 c0 -82 3 -108 16 -120 13 -14 52 -16 275 -16 319 0 299
-9 299 143 l0 104 40 18 c48 22 125 101 148 153 13 28 18 78 22 207 l5 170
105 5 c117 6 160 23 217 82 60 62 67 92 71 308 3 180 2 199 -18 252 -22 61
-78 126 -132 155 -24 12 -63 18 -140 21 l-108 4 -2 1132 -3 1131 -22 45 c-31
62 -84 114 -151 147 l-57 28 -1837 0 c-1010 0 -1855 -3 -1878 -7z m3728 -141
c17 -10 44 -36 60 -59 l27 -42 2 -1680 3 -1681 -23 -40 c-14 -26 -37 -48 -67
-62 l-44 -23 -1826 0 c-1202 0 -1837 4 -1862 10 -47 14 -93 61 -107 113 -8 30
-11 258 -9 807 l3 765 66 3 67 3 6 -68 c12 -119 38 -235 58 -255 24 -24 70
-23 93 2 17 19 18 27 6 93 -23 130 -32 201 -27 214 3 8 23 13 50 13 l44 0 6
-67 c18 -196 111 -435 231 -591 31 -40 53 -77 49 -83 -3 -6 -56 -62 -118 -126
-61 -63 -115 -121 -119 -129 -21 -36 32 -92 75 -79 13 4 78 61 144 127 l122
120 54 -44 c146 -119 343 -202 548 -232 l75 -11 3 -52 c3 -52 3 -53 -25 -53
-50 0 -200 30 -299 59 -124 37 -154 28 -154 -45 0 -32 31 -50 143 -85 274 -86
677 -73 943 30 209 82 269 145 188 197 -22 15 -28 14 -97 -20 -161 -78 -312
-120 -479 -132 l-88 -7 0 440 0 440 58 12 c49 10 114 41 174 83 14 10 34 -4
135 -99 65 -61 209 -204 321 -317 l203 -206 -23 -29 c-13 -17 -26 -29 -30 -28
-3 1 -130 125 -282 275 -151 149 -279 272 -283 272 -5 0 -32 -18 -61 -39 -29
-22 -62 -43 -75 -47 -55 -16 -76 -77 -40 -116 21 -24 46 -22 118 7 l60 25 43
-44 44 -43 -37 -21 c-20 -12 -66 -32 -103 -43 -37 -12 -83 -27 -102 -33 -31
-10 -35 -16 -38 -51 -4 -47 15 -65 68 -65 44 0 151 36 243 81 l67 33 37 -36
c35 -35 36 -38 20 -56 -29 -31 -186 -100 -282 -123 -142 -34 -155 -41 -155
-87 0 -21 5 -43 12 -50 43 -43 359 50 490 143 l51 37 92 -96 c66 -70 98 -96
115 -96 35 0 220 185 220 220 0 16 -18 43 -57 82 l-56 57 56 73 c123 162 212
386 234 593 l8 70 90 3 c102 3 125 16 125 68 0 66 14 64 -561 64 l-516 0 -6
45 c-2 25 -19 75 -36 110 l-32 65 40 42 c22 23 42 40 44 37 26 -33 50 -77 72
-132 15 -37 36 -72 47 -78 27 -15 65 -3 83 24 13 21 13 29 -1 78 -36 121 -126
257 -223 336 -104 86 -249 137 -280 99 -16 -19 -10 -87 9 -97 8 -4 44 -22 79
-39 35 -17 79 -43 98 -57 l34 -26 -47 -48 -46 -47 -49 25 c-27 14 -75 31 -106
37 l-58 12 -3 448 -2 448 67 -7 c89 -9 244 -47 342 -85 191 -74 409 -246 543
-428 89 -122 126 -145 170 -105 39 35 11 100 -100 231 l-45 53 30 32 c60 63
62 95 11 131 -31 22 -39 21 -91 -20 l-45 -35 -86 65 c-379 289 -837 370 -1271
224 -104 -35 -245 -105 -309 -154 -25 -19 -48 -34 -52 -34 -3 0 -22 14 -41 30
-41 36 -66 38 -98 5 -30 -29 -31 -41 -7 -76 18 -28 618 -640 639 -652 7 -4 43
8 80 26 37 19 83 37 101 40 l33 7 -3 -77 -3 -76 -42 -12 c-23 -7 -64 -25 -90
-41 l-47 -27 -376 381 c-270 276 -381 382 -397 382 -28 0 -63 -37 -63 -67 0
-13 16 -41 36 -62 l35 -40 -70 -92 c-80 -105 -177 -293 -214 -414 -30 -97 -54
-215 -62 -312 l-7 -73 -69 0 -69 0 0 795 c0 517 4 811 11 843 13 61 52 109
104 127 34 12 314 14 1870 12 1733 -2 1832 -3 1863 -20z m-2408 -537 c0 -27
-2 -50 -4 -50 -33 0 -203 -38 -271 -60 -77 -26 -188 -81 -247 -122 -15 -11
-23 -7 -53 22 -19 19 -35 37 -35 40 0 12 88 70 166 108 138 69 280 109 387
111 l57 1 0 -50z m-2 -243 c3 -54 2 -57 -20 -57 -41 0 -199 -50 -269 -86 -38
-19 -70 -34 -72 -34 -15 0 -79 71 -74 83 6 17 144 89 215 112 57 18 190 45
207 41 6 -2 11 -28 13 -59z m-815 -218 c31 -36 34 -51 11 -70 -30 -25 -117
-162 -160 -253 -47 -101 -89 -252 -99 -363 l-7 -73 -49 0 c-49 0 -49 0 -49 33
0 108 61 348 118 462 61 123 178 295 201 295 3 0 19 -14 34 -31z m817 -33 l0
-64 -42 -7 c-24 -4 -65 -16 -93 -26 l-50 -20 -37 43 c-21 24 -38 46 -38 49 0
10 110 57 171 73 90 24 89 25 89 -48z m-648 -143 c21 -20 38 -41 38 -46 0 -4
-13 -25 -29 -45 -40 -50 -116 -204 -136 -274 -22 -76 -17 -108 18 -128 24 -13
30 -13 55 0 21 12 33 33 53 96 29 90 91 213 120 240 10 9 20 15 22 13 1 -2 15
-19 31 -37 l30 -32 -43 -83 c-51 -98 -62 -158 -36 -187 18 -20 41 -25 69 -14
9 3 33 43 55 89 21 45 44 86 51 90 7 5 26 -6 48 -28 l35 -36 -25 -58 c-15 -32
-29 -77 -33 -100 l-7 -43 -305 0 -306 0 6 68 c10 108 43 219 97 328 44 88 134
224 149 224 3 0 22 -17 43 -37z m853 -350 c70 -23 138 -94 161 -166 10 -31 15
-59 12 -63 -4 -3 -35 -8 -70 -11 -91 -8 -122 -45 -82 -101 13 -19 24 -22 81
-22 l65 0 -7 -27 c-17 -72 -103 -151 -190 -174 -22 -6 -72 -9 -111 -7 -82 6
-141 34 -193 93 -25 29 -61 94 -61 111 0 2 28 4 62 4 73 0 98 17 98 66 0 46
-29 64 -106 64 l-62 0 10 43 c20 89 81 161 164 191 54 20 170 20 229 -1z
m-1012 -425 c8 -100 27 -169 53 -195 30 -30 49 -29 81 3 21 21 24 31 19 62
-21 117 -27 165 -22 178 4 9 21 14 55 14 l50 0 6 -37 c23 -151 54 -232 130
-331 50 -67 136 -142 194 -171 44 -22 152 -57 204 -66 l38 -6 -3 -62 -3 -62
-30 3 c-103 11 -256 77 -361 156 -34 25 -91 79 -128 120 -75 84 -96 95 -131
72 -62 -40 -39 -92 101 -226 155 -149 291 -216 517 -254 l37 -7 0 -54 0 -55
-34 0 c-18 0 -76 11 -128 24 -346 88 -620 349 -731 696 -26 82 -52 234 -42
250 3 6 32 10 64 10 l58 0 6 -62z m491 15 c9 -27 27 -66 39 -89 l24 -40 -43
-48 -42 -48 -15 23 c-35 53 -69 142 -74 194 l-6 55 51 0 50 0 16 -47z m928 17
c-6 -50 -42 -158 -57 -170 -14 -11 -22 -7 -54 24 l-39 38 20 47 c10 25 23 56
29 69 8 20 15 23 57 20 44 -3 47 -5 44 -28z m398 -4 c0 -51 -45 -216 -75 -277
-15 -30 -46 -80 -68 -112 l-41 -58 -88 88 -89 89 30 54 c26 47 47 118 67 228
4 21 7 22 134 22 l130 0 0 -34z m232 29 c8 -9 -20 -173 -43 -250 -38 -127
-122 -285 -192 -363 l-21 -22 -32 31 -33 32 43 61 c62 87 91 143 126 242 25
70 60 226 60 265 0 10 83 13 92 4z m-1370 -282 c10 -9 42 -24 70 -34 l53 -18
3 -65 3 -66 -30 0 c-41 0 -160 45 -196 75 l-30 24 50 50 c27 28 51 51 54 51 2
0 13 -7 23 -17z m2948 -308 c52 -27 70 -64 70 -149 l0 -76 -130 0 -130 0 0
120 0 120 80 0 c52 0 91 -5 110 -15z m70 -407 c-1 -104 -43 -138 -172 -138
l-88 0 0 95 0 95 130 0 130 0 0 -52z m-3790 -883 l0 -55 -165 0 -165 0 0 55 0
55 165 0 165 0 0 -55z m3190 0 l0 -55 -165 0 -165 0 0 55 0 55 165 0 165 0 0
-55z"/>
<path d="M500 4350 c-48 -4 -57 -9 -68 -32 -13 -29 -4 -63 22 -80 6 -4 266 -8
577 -8 536 0 567 1 582 18 22 24 22 65 -1 85 -16 15 -74 17 -537 19 -286 2
-545 1 -575 -2z"/>
<path d="M2095 4352 c-68 -6 -94 -50 -59 -100 l15 -22 1018 0 c973 0 1019 1
1034 18 22 24 22 65 -1 85 -15 14 -116 16 -992 19 -536 2 -993 2 -1015 0z"/>
<path d="M1782 4338 c-22 -22 -15 -76 13 -94 52 -34 115 29 81 81 -18 28 -72
35 -94 13z"/>
<path d="M510 4090 c-18 -18 -20 -33 -20 -165 0 -142 1 -147 25 -170 13 -14
31 -25 40 -25 9 0 27 11 40 25 23 22 25 31 25 125 l0 100 89 0 c85 0 91 1 110
27 24 30 20 58 -11 86 -17 14 -41 17 -149 17 -116 0 -131 -2 -149 -20z"/>
<path d="M2840 4090 c-11 -11 -20 -31 -20 -45 0 -50 30 -65 130 -65 l90 0 0
-104 c0 -101 1 -105 26 -125 15 -12 32 -21 39 -21 7 0 24 9 39 21 26 20 26 21
26 168 0 196 5 191 -178 191 -119 0 -134 -2 -152 -20z"/>
<path d="M3400 3990 c-25 -25 -26 -72 -2 -93 17 -15 56 -17 350 -17 319 0 333
1 352 20 11 11 20 31 20 45 0 14 -9 34 -20 45 -19 19 -33 20 -350 20 -317 0
-331 -1 -350 -20z"/>
<path d="M1966 3834 c-19 -18 -21 -77 -3 -92 6 -5 54 -22 106 -36 168 -48 315
-130 429 -240 115 -110 206 -238 252 -357 30 -74 46 -91 89 -87 75 6 70 77
-16 238 -147 275 -398 477 -698 564 -103 30 -137 32 -159 10z"/>
<path d="M3397 3622 c-23 -25 -21 -68 3 -92 19 -19 33 -20 344 -20 312 0 324
1 350 21 31 25 34 61 6 89 -19 19 -33 20 -353 20 -311 0 -335 -1 -350 -18z"/>
<path d="M1965 3580 c-22 -24 -23 -65 -1 -88 8 -10 49 -29 90 -41 112 -34 218
-101 311 -196 111 -112 163 -206 222 -400 16 -53 22 -61 51 -69 71 -20 90 46
51 178 -86 290 -301 513 -591 612 -87 29 -110 30 -133 4z"/>
<path d="M3430 3273 c-49 -18 -66 -75 -32 -106 17 -15 56 -17 354 -17 312 0
336 1 351 18 25 28 21 67 -9 91 -26 20 -38 21 -338 20 -171 0 -318 -3 -326 -6z"/>
<path d="M3000 3230 c-26 -26 -25 -48 5 -142 13 -42 32 -121 41 -175 11 -72
21 -103 36 -115 28 -25 55 -22 83 6 22 22 24 31 19 73 -8 72 -43 237 -60 285
-28 81 -82 110 -124 68z"/>
<path d="M3397 2892 c-22 -24 -21 -65 1 -85 17 -15 56 -17 350 -17 319 0 333
1 352 20 24 24 25 48 4 78 -15 22 -15 22 -353 22 -315 0 -339 -1 -354 -18z"/>
<path d="M2854 2892 c-22 -14 -26 -52 -9 -78 23 -35 74 -30 93 9 12 24 11 31
-2 53 -16 24 -58 32 -82 16z"/>
<path d="M3397 2482 c-21 -23 -21 -61 -1 -87 14 -19 28 -20 343 -23 320 -3
328 -2 354 18 32 25 36 69 9 93 -17 15 -56 17 -354 17 -312 0 -336 -1 -351
-18z"/>
<path d="M3420 2233 c-41 -15 -54 -78 -22 -106 17 -15 56 -17 349 -17 l330 0
21 23 c29 31 28 61 -4 86 -26 20 -38 21 -343 20 -174 0 -323 -3 -331 -6z"/>
<path d="M560 2090 c-24 -24 -25 -38 -4 -68 19 -28 57 -29 84 -2 25 25 26 52
2 73 -25 23 -58 21 -82 -3z"/>
<path d="M3113 2070 c-49 -20 -32 -110 21 -110 52 0 76 75 34 104 -25 18 -25
18 -55 6z"/>
<path d="M3415 1918 c-27 -15 -35 -28 -35 -59 0 -58 5 -59 368 -59 319 0 333
1 352 20 26 26 25 62 -1 86 -20 18 -42 19 -343 21 -230 2 -327 0 -341 -9z"/>
<path d="M670 1890 c-24 -24 -25 -38 -4 -68 22 -32 73 -27 93 10 15 25 14 29
-8 52 -29 31 -54 33 -81 6z"/>
<path d="M482 1718 c-17 -17 -15 -64 4 -83 41 -41 111 15 86 69 -9 20 -19 26
-45 26 -18 0 -38 -5 -45 -12z"/>
<path d="M3065 1586 c-23 -23 -25 -32 -25 -121 l0 -95 -93 0 c-78 0 -97 -3
-110 -18 -25 -28 -21 -67 9 -91 24 -19 40 -21 154 -21 173 0 170 -3 170 187 0
121 -2 142 -17 155 -34 30 -61 31 -88 4z"/>
<path d="M3440 1553 c-57 -11 -78 -65 -40 -103 19 -19 33 -20 353 -20 311 0
335 1 350 18 23 25 21 65 -4 88 -20 18 -41 19 -328 20 -168 1 -317 0 -331 -3z"/>
<path d="M1056 1535 c-40 -31 -15 -105 35 -105 45 0 66 71 31 103 -23 21 -41
21 -66 2z"/>
<path d="M467 1352 c-25 -27 -22 -78 5 -96 18 -13 52 -16 168 -16 167 0 190 8
190 64 0 60 -17 66 -192 66 -137 0 -157 -2 -171 -18z"/>
<path d="M437 1102 c-23 -25 -21 -65 4 -88 20 -18 45 -19 591 -19 552 0 570 1
584 19 18 26 18 56 -2 84 l-15 22 -573 0 c-542 0 -574 -1 -589 -18z"/>
<path d="M2040 1098 c-27 -29 -25 -54 5 -83 l24 -25 996 0 c1003 0 1025 1
1047 34 13 19 9 64 -8 80 -14 14 -121 16 -1029 16 l-1014 0 -21 -22z"/>
<path d="M1787 1092 c-34 -38 -9 -102 40 -102 23 0 63 39 63 61 0 24 -38 59
-64 59 -13 0 -30 -8 -39 -18z"/>
<path d="M2573 2469 c-30 -11 -38 -45 -19 -74 20 -31 56 -32 81 -5 36 40 -10
99 -62 79z"/>
</g>
</svg>
